<svg width="1040" height="308" viewBox="0 0 1040 308" fill="none" xmlns="http://www.w3.org/2000/svg">
<g clip-path="url(#clip0_946_38)">
<path d="M504.548 159.572L502.346 159.08C483.502 155.386 464.169 154.155 444.837 155.14C416.693 156.864 397.85 166.96 382.187 182.72C357.715 208.084 349.885 245.268 361.875 278.267C366.281 289.102 376.804 301.415 387.817 304.616C411.555 311.757 430.642 307.571 446.305 292.303L449.73 289.102L450.465 292.303C451.443 296.982 453.157 301.415 455.114 305.601H493.536C492.068 301.907 490.844 298.214 490.11 294.52C488.886 284.916 488.886 275.312 490.355 265.955L504.548 159.572ZM444.592 247.978C440.921 259.306 428.44 270.633 414.002 267.678C403.478 265.462 402.5 252.164 402.5 252.164C401.276 239.605 403.723 226.8 409.596 215.472C414.246 205.376 422.812 197.742 433.334 194.048C440.186 191.831 447.283 190.847 454.38 191.831C451.443 215.965 448.752 235.665 444.592 247.978Z" fill="#13C1BF"/>
<path d="M788.426 157.109L763.219 193.309L744.621 157.109H692.496L734.588 227.537L673.162 305.354H729.204L757.591 267.678L777.658 305.354H831.497L785.49 231.724L845.936 157.109H788.426Z" fill="#13C1BF"/>
<path d="M674.387 202.174C674.631 188.876 669.492 175.333 659.948 166.714C650.403 158.095 638.901 154.893 622.994 154.647C607.333 154.402 592.405 160.804 581.882 172.624C581.148 165.483 578.7 158.587 574.784 152.678L528.042 161.051C529.266 163.759 530.979 167.453 531.959 169.915C535.384 178.042 536.608 186.661 535.629 195.525L519.967 305.601H569.89L583.595 208.33C590.202 200.697 599.502 196.265 609.535 196.018C615.898 196.018 620.547 198.48 622.75 202.667C624.952 206.853 624.463 212.764 623.729 217.196L611.248 305.847H660.926L673.163 218.181C673.896 212.764 674.387 207.346 674.387 202.174Z" fill="#13C1BF"/>
<path d="M287.481 154.646C275.49 154.4 263.988 157.602 253.71 164.004L264.232 88.6504H72.8602C10.4561 88.6504 1.4014 132.237 0.911961 135.931C-0.556369 143.811 -2.26942 164.743 13.3928 193.309L54.2613 178.533C47.8985 167.452 42.5146 152.184 48.388 142.826C53.2824 135.192 60.6241 131.252 79.223 131.252H101.492L77.2652 305.353H127.188L151.416 131.252H208.436L183.963 305.353H233.887L247.591 208.083C254.199 200.449 263.498 196.017 273.532 195.771C279.895 195.771 284.544 198.233 286.747 202.173C288.95 206.114 288.46 212.27 287.726 216.702L275.245 305.353H324.924L337.159 217.687C337.894 212.516 338.139 207.345 338.383 202.173C338.628 188.875 333.489 175.332 323.945 166.713C314.401 158.094 303.388 154.646 287.481 154.646Z" fill="#13C1BF"/>
<path d="M958.263 53.9298L921.066 71.4138C919.108 72.3988 916.661 72.3988 914.702 71.4138L882.889 53.6836L895.615 88.159C896.348 90.3754 896.104 92.8378 894.635 94.5616L872.121 129.53L909.074 111.553C911.032 110.568 913.479 110.568 915.437 111.553L947.251 129.53L934.77 94.8078C934.036 92.5916 934.28 90.129 935.749 88.4053L958.263 53.9298Z" fill="#13C1BF"/>
<path d="M1024.58 154.646L996.927 167.944C995.463 168.684 993.499 168.684 992.035 167.944L968.298 154.646L977.841 180.504C978.332 182.227 978.082 183.951 977.109 185.428L960.221 211.531L987.875 198.234C989.339 197.495 991.303 197.495 992.767 198.234L1016.5 211.531L1006.96 185.428C1006.47 183.705 1006.72 181.981 1007.69 180.504L1024.58 154.646Z" fill="#13C1BF"/>
<path d="M816.079 41.8622L792.341 28.5645L801.886 54.4211C802.375 56.1449 802.131 57.8686 801.151 59.3462L784.266 85.449L811.919 72.1514C813.388 71.4125 815.345 71.4125 816.814 72.1514L840.552 85.6953L831.008 59.5924C830.518 57.8686 830.762 56.1449 831.742 54.6674L848.383 28.8108L820.974 41.8622C819.261 42.6009 817.548 42.6009 816.079 41.8622Z" fill="#13C1BF"/>
<path d="M1030.21 15.2678L1040 0L1023.6 7.88011C1022.63 8.37262 1021.65 8.37262 1020.66 7.88011L1006.96 0L1012.59 15.2678C1012.83 16.2528 1012.83 17.2377 1012.1 18.2227L1002.07 33.4905L1018.47 25.6104C1019.44 25.1179 1020.42 25.1179 1021.4 25.6104L1035.35 33.4905L1029.72 18.2227C1029.47 16.9915 1029.47 16.0065 1030.21 15.2678Z" fill="#13C1BF"/>
<path d="M893.167 192.816L876.771 200.696C875.791 201.189 874.812 201.189 873.834 200.696L859.884 192.816L865.513 208.084C865.758 209.069 865.758 210.054 865.023 211.039L854.99 226.307L871.387 218.427C872.365 217.934 873.344 217.934 874.323 218.427L888.272 226.307L882.644 211.039C882.399 210.054 882.399 209.069 883.133 208.084L893.167 192.816Z" fill="#13C1BF"/>
</g>
<defs>
<clipPath id="clip0_946_38">
<rect width="1040" height="308" fill="white"/>
</clipPath>
</defs>
</svg>
